<?xml version="1.0" standalone="no"?>
<!DOCTYPE svg PUBLIC "-//W3C//DTD SVG 20010904//EN"
 "http://www.w3.org/TR/2001/REC-SVG-20010904/DTD/svg10.dtd">
<svg version="1.0" xmlns="http://www.w3.org/2000/svg"
 width="210.000000pt" height="210.000000pt" viewBox="0 0 210.000000 210.000000"
 preserveAspectRatio="xMidYMid meet">
<metadata>
Created by potrace 1.11, written by Peter Selinger 2001-2013
</metadata>
<g transform="translate(0.000000,210.000000) scale(0.100000,-0.100000)"
fill="#000000" stroke="none">
<path d="M284 1768 c-29 -14 -44 -49 -44 -106 0 -46 -2 -48 -53 -80 -64 -40
-93 -80 -108 -150 -12 -60 -5 -146 15 -177 24 -37 81 -87 114 -101 l32 -14 0
-400 0 -400 33 -20 c32 -20 71 -20 92 1 6 6 11 158 13 402 l3 392 26 20 c124
96 160 160 150 261 -9 88 -37 129 -145 211 -25 19 -30 31 -34 78 -6 74 -44
107 -94 83z m104 -321 c46 -49 46 -109 2 -155 -49 -52 -93 -54 -149 -6 -27 22
-31 32 -31 74 0 38 6 55 26 79 23 27 32 31 78 31 42 0 57 -5 74 -23z"/>
<path d="M1005 1757 c-24 -21 -26 -28 -30 -137 -2 -63 -4 -235 -4 -382 l-1
-268 -42 -27 c-65 -42 -107 -92 -123 -147 -31 -103 -10 -180 69 -253 28 -26
60 -52 70 -58 12 -7 20 -30 27 -84 10 -86 20 -101 63 -101 53 0 67 18 76 100
5 49 13 76 24 82 50 28 103 79 124 121 63 122 27 251 -94 331 l-54 36 -1 263
c0 311 -6 494 -14 507 -4 6 -19 17 -35 25 -27 14 -31 13 -55 -8z m104 -962
c27 -24 44 -70 37 -99 -3 -13 -18 -38 -32 -55 -22 -27 -32 -31 -74 -31 -42 0
-52 4 -74 31 -34 40 -41 72 -26 110 21 49 58 72 108 66 24 -2 51 -12 61 -22z"/>
<path d="M1730 1762 c-19 -15 -24 -32 -29 -88 -6 -67 -7 -69 -49 -97 -151
-101 -150 -317 3 -425 l45 -32 1 -277 c0 -314 7 -515 18 -525 15 -16 66 -19
86 -5 19 14 20 30 23 389 1 205 5 383 8 395 3 15 22 32 53 47 90 46 131 115
131 221 0 95 -35 166 -103 207 -74 45 -79 51 -88 113 -4 32 -14 64 -21 70 -25
24 -54 26 -78 7z m131 -321 c49 -49 36 -130 -27 -172 -114 -75 -227 97 -120
183 13 11 39 18 69 18 40 0 53 -5 78 -29z"/>
</g>
</svg>
